<svg version="1.1" id="Layer_1" xmlns="http://www.w3.org/2000/svg" xmlns:xlink="http://www.w3.org/1999/xlink" x="0px" y="0px"
	 width="100%" viewBox="0 0 624 480" enable-background="new 0 0 624 480" xml:space="preserve">
<path fill="#000000" opacity="1.000000" stroke="none" 
	d="
M248.935883,243.154846 
	C247.603073,242.397156 246.597977,241.806808 245.591339,241.219116 
	C235.875961,235.547226 235.769043,235.501328 240.316116,224.944931 
	C252.037064,197.733765 263.915100,170.590134 275.578094,143.354309 
	C277.046906,139.924255 278.983307,138.656403 282.702881,138.701355 
	C297.357635,138.878464 312.015961,138.751160 326.672913,138.769180 
	C328.300537,138.771179 330.014618,138.423157 331.551697,139.524521 
	C332.245483,141.665131 330.894958,143.343460 330.126099,145.113068 
	C320.906525,166.331802 311.754395,187.581146 302.314728,208.701859 
	C300.443207,212.889343 302.398926,214.283340 305.479431,215.986359 
	C336.225372,232.984161 366.873871,250.159653 397.712128,266.987640 
	C402.327698,269.506287 402.781555,271.559723 400.722504,276.224182 
	C388.086334,304.849426 375.788208,333.624084 363.437378,362.374664 
	C362.242645,365.155853 361.005402,367.249054 357.416626,367.221802 
	C341.927856,367.104248 326.437622,367.183258 310.947937,367.166626 
	C309.811005,367.165405 308.584595,367.267395 307.673767,366.125061 
	C306.930389,364.217590 308.203125,362.684418 308.909119,361.058441 
	C318.191010,339.680450 327.405884,318.272491 336.872314,296.976349 
	C338.738708,292.777679 336.176025,291.705566 333.495361,290.214081 
	C305.414398,274.590118 277.339478,258.955261 248.935883,243.154846 
z"/>
<path fill="#000000" opacity="1.000000" stroke="none" 
	d="
M303.269043,317.182922 
	C296.773315,332.368683 290.283722,347.146698 284.028748,362.023376 
	C282.485931,365.692871 280.567719,367.414795 276.285309,367.327820 
	C262.139374,367.040497 247.984222,367.219299 233.832687,367.188263 
	C232.028961,367.184326 230.150848,367.493195 228.486755,366.405884 
	C227.366241,364.673584 228.456924,363.178162 229.084427,361.713593 
	C235.244507,347.336182 241.537689,333.014954 247.582153,318.589417 
	C249.020111,315.157654 251.036087,313.837555 254.741364,313.863983 
	C269.557617,313.969635 284.375702,313.795166 299.193024,313.809265 
	C301.126862,313.811096 304.019287,312.990265 303.269043,317.182922 
z"/>
<path fill="#000000" opacity="1.000000" stroke="none" 
	d="
M395.104248,178.015930 
	C393.126312,186.582092 388.130859,188.996826 379.808868,188.460922 
	C367.380615,187.660568 354.863831,188.258942 342.385101,188.192368 
	C340.461975,188.182114 338.381775,188.729111 336.313599,187.011826 
	C338.032654,180.201584 341.625702,174.015076 344.321045,167.492889 
	C347.750031,159.195343 351.457123,151.012741 355.040405,142.778885 
	C356.001251,140.570923 357.050110,138.708939 360.014862,138.724854 
	C376.153503,138.811539 392.292847,138.770279 408.431824,138.812668 
	C409.205719,138.814697 409.978638,139.191971 411.500610,139.590530 
	C406.637573,152.731979 400.676788,165.090027 395.104248,178.015930 
z"/>
</svg>